<?xml version="1.0" encoding="UTF-8" standalone="no"?>
<!DOCTYPE svg PUBLIC "-//W3C//DTD SVG 1.1//EN" "http://www.w3.org/Graphics/SVG/1.1/DTD/svg11.dtd">
<svg width="100%" height="100%" viewBox="0 0 310 330" version="1.1" xmlns="http://www.w3.org/2000/svg" xmlns:xlink="http://www.w3.org/1999/xlink" xml:space="preserve" xmlns:serif="http://www.serif.com/" style="fill-rule:evenodd;clip-rule:evenodd;stroke-linejoin:round;stroke-miterlimit:2;">
    <g transform="matrix(1,0,0,1,-840,-130)">
        <g id="Agentique" transform="matrix(1,0,0,1,330,160)">
            <g transform="matrix(0.785714,0,0,0.857143,123.571,30)">
                <path d="M733.636,280L784.545,303.333L784.545,315L555.455,315L555.455,303.333L606.364,280L733.636,280Z"/>
            </g>
            <g transform="matrix(0.214286,0,0,0.892857,506.429,-10)">
                <rect x="576.667" y="280" width="186.667" height="56"/>
            </g>
            <path d="M790,160L790,240L780,250L520,250L510,240L510,80L520,70L590,70L590,90L530,90L530,230L770,230L770,160L790,160Z"/>
            <g transform="matrix(0.597826,0,0,0.558036,556.957,-47.8571)">
                <path d="M192,256L72,186L80,176L221.48,194.466L256,32L292.399,193.962L432,176L440,186L320,256L424,312L428,328L292.534,317.534L256,480L221.345,317.031L84,328L88,312L192,256Z"/>
            </g>
        </g>
    </g>
</svg>
